<?xml version="1.0" encoding="UTF-8" standalone="no"?>
<!-- Created with Inkscape (http://www.inkscape.org/) -->

<svg
   width="34.442295mm"
   height="28.534067mm"
   viewBox="0 0 34.442295 28.534067"
   version="1.1"
   id="svg1"
   inkscape:version="1.4.1 (1:1.4.1+202503302257+93de688d07)"
   sodipodi:docname="lifted_graph_v1.svg"
   xmlns:inkscape="http://www.inkscape.org/namespaces/inkscape"
   xmlns:sodipodi="http://sodipodi.sourceforge.net/DTD/sodipodi-0.dtd"
   xmlns="http://www.w3.org/2000/svg"
   xmlns:svg="http://www.w3.org/2000/svg"
   xmlns:ns19="http://www.iki.fi/pav/software/textext/">
  <sodipodi:namedview
     id="namedview1"
     pagecolor="#ffffff"
     bordercolor="#000000"
     borderopacity="0.25"
     inkscape:showpageshadow="2"
     inkscape:pageopacity="0.0"
     inkscape:pagecheckerboard="0"
     inkscape:deskcolor="#d1d1d1"
     inkscape:document-units="mm"
     inkscape:zoom="3.9408307"
     inkscape:cx="66.483445"
     inkscape:cy="74.60356"
     inkscape:window-width="1856"
     inkscape:window-height="1003"
     inkscape:window-x="64"
     inkscape:window-y="1120"
     inkscape:window-maximized="1"
     inkscape:current-layer="layer1" />
  <defs
     id="defs1">
    <g
       id="g238">
      <symbol
         overflow="visible"
         id="symbol237">
        <path
           style="stroke:none;stroke-width:0"
           d=""
           id="path237" />
      </symbol>
      <symbol
         overflow="visible"
         id="symbol238">
        <path
           style="stroke:none;stroke-width:0"
           d="m 2.828125,-6.234375 c 0,-0.203125 -0.140625,-0.359375 -0.359375,-0.359375 -0.28125,0 -0.546875,0.265625 -0.546875,0.53125 0,0.1875 0.140625,0.359375 0.375,0.359375 0.234375,0 0.53125,-0.234375 0.53125,-0.53125 z m -0.75,3.75 c 0.109375,-0.28125 0.109375,-0.3125 0.21875,-0.578125 0.078125,-0.203125 0.125,-0.34375 0.125,-0.53125 0,-0.4375 -0.3125,-0.8125 -0.8125,-0.8125 -0.9375,0 -1.3125,1.453125 -1.3125,1.53125 0,0.109375 0.09375,0.109375 0.109375,0.109375 0.109375,0 0.109375,-0.03125 0.15625,-0.1875 0.28125,-0.9375 0.671875,-1.234375 1.015625,-1.234375 0.078125,0 0.25,0 0.25,0.3125 0,0.21875 -0.078125,0.421875 -0.109375,0.53125 -0.078125,0.25 -0.53125,1.40625 -0.6875,1.84375 -0.109375,0.25 -0.234375,0.578125 -0.234375,0.796875 0,0.46875 0.34375,0.8125 0.8125,0.8125 0.9375,0 1.3125,-1.4375 1.3125,-1.53125 0,-0.109375 -0.09375,-0.109375 -0.125,-0.109375 -0.09375,0 -0.09375,0.03125 -0.140625,0.1875 -0.1875,0.625 -0.515625,1.234375 -1.015625,1.234375 -0.171875,0 -0.25,-0.09375 -0.25,-0.328125 0,-0.25 0.0625,-0.390625 0.296875,-1 z m 0,0"
           id="path238" />
      </symbol>
    </g>
    <g
       id="g240">
      <symbol
         overflow="visible"
         id="symbol239">
        <path
           style="stroke:none;stroke-width:0"
           d=""
           id="path239" />
      </symbol>
      <symbol
         overflow="visible"
         id="symbol240">
        <path
           style="stroke:none;stroke-width:0"
           d="m 3.953125,-6.234375 c 0,-0.1875 -0.140625,-0.359375 -0.375,-0.359375 -0.234375,0 -0.53125,0.234375 -0.53125,0.53125 0,0.203125 0.140625,0.359375 0.375,0.359375 0.265625,0 0.53125,-0.265625 0.53125,-0.53125 z m -2,6.734375 c -0.1875,0.75 -0.671875,1.328125 -1.21875,1.328125 -0.0625,0 -0.21875,0 -0.390625,-0.09375 0.296875,-0.0625 0.4375,-0.328125 0.4375,-0.53125 0,-0.15625 -0.109375,-0.34375 -0.375,-0.34375 -0.25,0 -0.53125,0.203125 -0.53125,0.5625 0,0.40625 0.390625,0.625 0.875,0.625 0.703125,0 1.625,-0.53125 1.875,-1.515625 L 3.53125,-3.125 c 0.0625,-0.1875 0.0625,-0.328125 0.0625,-0.359375 0,-0.578125 -0.421875,-0.921875 -0.921875,-0.921875 -1.015625,0 -1.578125,1.453125 -1.578125,1.53125 0,0.109375 0.09375,0.109375 0.109375,0.109375 0.09375,0 0.109375,-0.015625 0.1875,-0.203125 0.25,-0.609375 0.703125,-1.21875 1.25,-1.21875 0.140625,0 0.3125,0.046875 0.3125,0.453125 0,0.234375 -0.015625,0.34375 -0.0625,0.515625 z m 0,0"
           id="path240" />
      </symbol>
    </g>
  </defs>
  <g
     inkscape:label="Layer 1"
     inkscape:groupmode="layer"
     id="layer1"
     transform="translate(-20.0074, -27.6613)">
    <rect
       style="fill:#ffffff;stroke-width:0.264999"
       id="rect4"
       width="34.442295"
       height="28.534067"
       x="20.007414"
       y="27.661257" />
    <path
       style="fill:#000000;fill-opacity:1;stroke:none;stroke-width:0.264583;stroke-opacity:1"
       d="M 26.266903,47.945499 38.411519,44.93403"
       id="path132-8-06-7" />
    <g
       id="g138-7-9-8-6"
       transform="matrix(0.35277801,0,0,0.35277801,-110.93782,-69.642316)"
       style="stroke:#000000;stroke-width:0.433701;stroke-dasharray:none;stroke-opacity:1">
      <path
         style="fill:#000000;fill-opacity:1;stroke:#000000;stroke-width:0.433701;stroke-dasharray:none;stroke-opacity:1"
         d="m 412.71662,322.26418 -37.19034,11.94989"
         id="path135-2-1-7-8"
         sodipodi:nodetypes="cc" />
      <path
         style="fill:#000000;fill-opacity:1;stroke:#000000;stroke-width:0.433701;stroke-dasharray:none;stroke-opacity:1"
         d="m 412.71662,322.26418 -31.49756,17.64267"
         id="path136-7-0-9-9"
         sodipodi:nodetypes="cc" />
      <path
         style="fill:#000000;fill-opacity:1;stroke:#000000;stroke-width:0.433701;stroke-dasharray:none;stroke-opacity:1"
         d="m 412.71662,322.26418 -25.80477,11.94989"
         id="path137-2-7-6-0"
         sodipodi:nodetypes="cc" />
      <path
         style="fill:#000000;fill-opacity:1;stroke:#000000;stroke-width:0.433701;stroke-dasharray:none;stroke-opacity:1"
         d="m 412.71662,322.26418 -31.49756,6.25711"
         id="path138-2-5-0-6"
         sodipodi:nodetypes="cc" />
    </g>
    <g
       id="g138-9-8-8"
       transform="matrix(0.35277801,0,0,0.35277801,-110.93782,-69.642316)"
       style="stroke:#000000;stroke-width:0.433701;stroke-dasharray:none;stroke-opacity:1">
      <path
         style="fill:#000000;fill-opacity:1;stroke:#000000;stroke-width:0.433701;stroke-dasharray:none;stroke-opacity:1"
         d="m 423.63207,322.26418 -48.10579,11.94989"
         id="path135-6-7-7"
         sodipodi:nodetypes="cc" />
      <path
         style="fill:#000000;fill-opacity:1;stroke:#000000;stroke-width:0.433701;stroke-dasharray:none;stroke-opacity:1"
         d="m 423.63207,322.26418 -42.41301,17.64267"
         id="path136-4-9-9"
         sodipodi:nodetypes="cc" />
      <path
         style="fill:#000000;fill-opacity:1;stroke:#000000;stroke-width:0.433701;stroke-dasharray:none;stroke-opacity:1"
         d="m 423.63207,322.26418 -36.72022,11.94989"
         id="path137-3-0-0"
         sodipodi:nodetypes="cc" />
      <path
         style="fill:#000000;fill-opacity:1;stroke:#000000;stroke-width:0.433701;stroke-dasharray:none;stroke-opacity:1"
         d="m 423.63207,322.26418 -42.41301,6.25711"
         id="path138-3-3-3"
         sodipodi:nodetypes="cc" />
    </g>
    <g
       id="g138-8-1-2-3"
       transform="matrix(0.35277801,0,0,0.35277801,-110.93783,-69.642316)"
       style="stroke:#000000;stroke-width:0.433701;stroke-dasharray:none;stroke-opacity:1">
      <path
         id="path138-4-5-6-3"
         style="fill:#000000;fill-opacity:1;stroke:#000000;stroke-width:0.425197;stroke-dasharray:none;stroke-opacity:1"
         d="m 419.14667,315.22821 -37.92761,13.29308 m 37.92761,-13.29308 -32.23482,18.98586 m 32.23482,-18.98586 -37.92761,24.67864 m 37.92761,-24.67864 -43.91725,19.18377"
         sodipodi:nodetypes="cccccccc" />
    </g>
    <g
       id="g138-5-8-8-7"
       transform="matrix(0.35277801,0,0,0.35277801,-110.93782,-69.642316)"
       style="stroke:#000000;stroke-width:0.433701;stroke-dasharray:none;stroke-opacity:1">
      <path
         style="fill:#000000;fill-opacity:1;stroke:#000000;stroke-width:0.433701;stroke-dasharray:none;stroke-opacity:1"
         d="m 417.86083,326.61377 -42.33455,7.6003"
         id="path135-9-0-7-3"
         sodipodi:nodetypes="cc" />
      <path
         style="fill:#000000;fill-opacity:1;stroke:#000000;stroke-width:0.433701;stroke-dasharray:none;stroke-opacity:1"
         d="m 417.86083,326.61377 -36.64177,13.29308"
         id="path136-84-4-0-2"
         sodipodi:nodetypes="cc" />
      <path
         style="fill:#000000;fill-opacity:1;stroke:#000000;stroke-width:0.433701;stroke-dasharray:none;stroke-opacity:1"
         d="m 417.86083,326.61377 -30.94898,7.6003"
         id="path137-81-2-8-6"
         sodipodi:nodetypes="cc" />
      <path
         style="fill:#000000;fill-opacity:1;stroke:#000000;stroke-width:0.433701;stroke-dasharray:none;stroke-opacity:1"
         d="m 417.86083,326.61377 -36.64177,1.90752"
         id="path138-0-9-6-5"
         sodipodi:nodetypes="cc" />
    </g>
    <g
       id="g131-4-94-2"
       transform="matrix(0.35277801,0,0,0.35277801,-74.706768,-29.43713)">
      <circle
         style="fill:#b2b2b2;fill-opacity:1;stroke:none;stroke-width:0.75;stroke-opacity:1"
         id="path1-4-2-6"
         cx="276.48837"
         cy="220.24669"
         r="5.3177843" />
      <circle
         style="fill:#000000;fill-opacity:1;stroke:none;stroke-width:0.75;stroke-opacity:1"
         id="path2-7-2-5"
         cx="276.48837"
         cy="214.55391"
         r="2.0285513" />
      <circle
         style="fill:#000000;fill-opacity:1;stroke:none;stroke-width:0.75;stroke-opacity:1"
         id="path2-1-6-6-8"
         cx="270.79559"
         cy="220.24669"
         r="2.0285513" />
      <circle
         style="fill:#000000;fill-opacity:1;stroke:none;stroke-width:0.75;stroke-opacity:1"
         id="path2-3-3-4-7"
         cx="276.48837"
         cy="225.93947"
         r="2.0285513" />
      <circle
         style="fill:#000000;fill-opacity:1;stroke:none;stroke-width:0.75;stroke-opacity:1"
         id="path2-36-1-12-9"
         cx="282.18115"
         cy="220.24669"
         r="2.0285513" />
    </g>
    <path
       style="fill:#ffffff;fill-opacity:1;stroke:#000000;stroke-width:0.15;stroke-dasharray:none;stroke-opacity:1"
       d="m 38.254078,40.674042 8.517723,-7.261008"
       id="path189"
       sodipodi:nodetypes="cc" />
    <path
       style="fill:#ffffff;fill-opacity:1;stroke:#000000;stroke-width:0.15;stroke-dasharray:none;stroke-opacity:1"
       d="M 46.701982,29.433459 38.184259,40.464598"
       id="path192" />
    <path
       style="fill:#ffffff;fill-opacity:1;stroke:#000000;stroke-width:0.15;stroke-dasharray:none;stroke-opacity:1"
       d="m 44.118741,31.388322 -6.353384,9.076276"
       id="path191"
       sodipodi:nodetypes="cc" />
    <path
       style="fill:#ffffff;fill-opacity:1;stroke:#000000;stroke-width:0.15;stroke-dasharray:none;stroke-opacity:1"
       d="M 48.09833,31.109062 38.114441,40.60422"
       id="path193" />
    <path
       style="fill:#ffffff;fill-opacity:1;stroke:#000000;stroke-width:0.15;stroke-dasharray:none;stroke-opacity:1"
       d="M 43.909286,30.899618 35.810469,42.768563"
       id="path194" />
    <path
       style="fill:#ffffff;fill-opacity:1;stroke:#000000;stroke-width:0.15;stroke-dasharray:none;stroke-opacity:1"
       d="m 46.143443,29.293811 -9.983889,13.40493"
       id="path195" />
    <path
       style="fill:#ffffff;fill-opacity:1;stroke:#000000;stroke-width:0.15;stroke-dasharray:none;stroke-opacity:1"
       d="M 48.3776,31.178888 36.229372,43.047832"
       id="path196" />
    <path
       style="fill:#ffffff;fill-opacity:1;stroke:#000000;stroke-width:0.15;stroke-dasharray:none;stroke-opacity:1"
       d="M 46.632164,32.924317 36.089739,42.90821"
       id="path197" />
    <path
       style="fill:#ffffff;fill-opacity:1;stroke:#000000;stroke-width:0.15;stroke-dasharray:none;stroke-opacity:1"
       d="M 44.258374,31.178888 37.206817,45.072556"
       id="path198" />
    <path
       style="fill:#ffffff;fill-opacity:1;stroke:#000000;stroke-width:0.15;stroke-dasharray:none;stroke-opacity:1"
       d="M 46.632164,28.735276 37.62572,45.212175"
       id="path199" />
    <path
       style="fill:#ffffff;fill-opacity:1;stroke:#000000;stroke-width:0.15;stroke-dasharray:none;stroke-opacity:1"
       d="M 48.936139,30.550527 37.974808,45.072556"
       id="path200" />
    <path
       style="fill:#ffffff;fill-opacity:1;stroke:#000000;stroke-width:0.15;stroke-dasharray:none;stroke-opacity:1"
       d="M 46.771801,32.5054 37.555902,45.700889"
       id="path201" />
    <path
       style="fill:#ffffff;fill-opacity:1;stroke:#000000;stroke-width:0.15;stroke-dasharray:none;stroke-opacity:1"
       d="M 44.747095,30.550527 39.580608,43.187479"
       id="path202" />
    <path
       style="fill:#ffffff;fill-opacity:1;stroke:#000000;stroke-width:0.15;stroke-dasharray:none;stroke-opacity:1"
       d="M 46.771801,28.525831 39.580608,43.396924"
       id="path203" />
    <path
       style="fill:#ffffff;fill-opacity:1;stroke:#000000;stroke-width:0.15;stroke-dasharray:none;stroke-opacity:1"
       d="M 49.005958,30.341082 39.650426,43.536571"
       id="path204" />
    <path
       style="fill:#ffffff;fill-opacity:1;stroke:#000000;stroke-width:0.15;stroke-dasharray:none;stroke-opacity:1"
       d="M 46.701982,32.435603 39.580608,43.67619"
       id="path205" />
    <path
       style="fill:#ffffff;fill-opacity:1;stroke:#000000;stroke-width:0.15;stroke-dasharray:none;stroke-opacity:1"
       d="M 51.659018,47.446339 38.044626,41.023133"
       id="path206"
       sodipodi:nodetypes="cc" />
    <path
       style="fill:#ffffff;fill-opacity:1;stroke:#000000;stroke-width:0.15;stroke-dasharray:none;stroke-opacity:1"
       d="M 52.496823,49.680486 37.90499,41.372225"
       id="path207" />
    <path
       style="fill:#ffffff;fill-opacity:1;stroke:#000000;stroke-width:0.15;stroke-dasharray:none;stroke-opacity:1"
       d="M 51.30993,52.054276 37.555902,41.581669"
       id="path208" />
    <path
       style="fill:#ffffff;fill-opacity:1;stroke:#000000;stroke-width:0.15;stroke-dasharray:none;stroke-opacity:1"
       d="M 49.42486,49.820133 37.555902,41.511844"
       id="path209" />
    <path
       style="fill:#ffffff;fill-opacity:1;stroke:#000000;stroke-width:0.15;stroke-dasharray:none;stroke-opacity:1"
       d="M 51.449563,47.51614 39.929696,42.978007"
       id="path210" />
    <path
       style="fill:#ffffff;fill-opacity:1;stroke:#000000;stroke-width:0.15;stroke-dasharray:none;stroke-opacity:1"
       d="M 53.264817,50.029577 39.790059,43.396924"
       id="path211" />
    <path
       style="fill:#ffffff;fill-opacity:1;stroke:#000000;stroke-width:0.15;stroke-dasharray:none;stroke-opacity:1"
       d="M 51.100478,51.844832 39.440971,43.536571"
       id="path212" />
    <path
       style="fill:#ffffff;fill-opacity:1;stroke:#000000;stroke-width:0.15;stroke-dasharray:none;stroke-opacity:1"
       d="M 49.564494,49.88993 39.580608,43.536571"
       id="path213" />
    <path
       style="fill:#ffffff;fill-opacity:1;stroke:#000000;stroke-width:0.15;stroke-dasharray:none;stroke-opacity:1"
       d="m 51.240111,48.004878 -15.49946,-4.67778"
       id="path214" />
    <path
       style="fill:#ffffff;fill-opacity:1;stroke:#000000;stroke-width:0.15;stroke-dasharray:none;stroke-opacity:1"
       d="M 49.075773,49.959752 36.089739,43.67619"
       id="path215" />
    <path
       style="fill:#ffffff;fill-opacity:1;stroke:#000000;stroke-width:0.15;stroke-dasharray:none;stroke-opacity:1"
       d="M 53.474269,49.820133 35.950102,43.466746"
       id="path216" />
    <path
       style="fill:#ffffff;fill-opacity:1;stroke:#000000;stroke-width:0.15;stroke-dasharray:none;stroke-opacity:1"
       d="M 51.379748,51.775006 35.740651,43.67619"
       id="path217" />
    <path
       style="fill:#ffffff;fill-opacity:1;stroke:#000000;stroke-width:0.15;stroke-dasharray:none;stroke-opacity:1"
       d="M 51.240111,47.935057 37.974808,45.351822"
       id="path218" />
    <path
       style="fill:#ffffff;fill-opacity:1;stroke:#000000;stroke-width:0.15;stroke-dasharray:none;stroke-opacity:1"
       d="M 49.42486,49.680486 37.974808,45.351822"
       id="path219" />
    <path
       style="fill:#ffffff;fill-opacity:1;stroke:#000000;stroke-width:0.15;stroke-dasharray:none;stroke-opacity:1"
       d="M 51.30993,52.124098 37.765357,45.072556"
       id="path220" />
    <path
       style="fill:#ffffff;fill-opacity:1;stroke:#000000;stroke-width:0.15;stroke-dasharray:none;stroke-opacity:1"
       d="M 53.194999,49.820133 37.416269,45.421619"
       id="path221" />
    <path
       style="fill:#ffffff;fill-opacity:1;stroke:#000000;stroke-width:0.15;stroke-dasharray:none;stroke-opacity:1"
       d="M 51.659014,48.004878 37.416269,45.561266"
       id="path222" />
    <g
       id="g131-7-7-5-3-3"
       transform="matrix(0.35277801,0,0,0.35277801,-50.681752,-47.193023)">
      <circle
         style="fill:#b2b2b2;fill-opacity:1;stroke:none;stroke-width:0.75;stroke-opacity:1"
         id="path1-3-8-3-8-3"
         cx="276.48837"
         cy="220.24669"
         r="5.3177843" />
      <circle
         style="fill:#000000;fill-opacity:1;stroke:none;stroke-width:0.75;stroke-opacity:1"
         id="path2-6-4-8-0-3"
         cx="276.48837"
         cy="214.55391"
         r="2.0285513" />
      <circle
         style="fill:#000000;fill-opacity:1;stroke:none;stroke-width:0.75;stroke-opacity:1"
         id="path2-1-1-5-8-47-8"
         cx="270.79559"
         cy="220.24669"
         r="2.0285513" />
      <circle
         style="fill:#000000;fill-opacity:1;stroke:none;stroke-width:0.75;stroke-opacity:1"
         id="path2-3-2-0-3-68-0"
         cx="276.48837"
         cy="225.93947"
         r="2.0285513" />
      <circle
         style="fill:#000000;fill-opacity:1;stroke:none;stroke-width:0.75;stroke-opacity:1"
         id="path2-36-9-3-1-9-4"
         cx="282.18115"
         cy="220.24669"
         r="2.0285513" />
    </g>
    <g
       id="g131-7-3-4-6-8"
       transform="matrix(0.35277801,0,0,0.35277801,-46.062276,-27.780404)">
      <circle
         style="fill:#b2b2b2;fill-opacity:1;stroke:none;stroke-width:0.75;stroke-opacity:1"
         id="path1-3-2-1-8-8"
         cx="276.48837"
         cy="220.24669"
         r="5.3177843" />
      <circle
         style="fill:#000000;fill-opacity:1;stroke:none;stroke-width:0.75;stroke-opacity:1"
         id="path2-6-0-8-3-6"
         cx="276.48837"
         cy="214.55391"
         r="2.0285513" />
      <circle
         style="fill:#000000;fill-opacity:1;stroke:none;stroke-width:0.75;stroke-opacity:1"
         id="path2-1-1-6-5-8-8"
         cx="270.79559"
         cy="220.24669"
         r="2.0285513" />
      <circle
         style="fill:#000000;fill-opacity:1;stroke:none;stroke-width:0.75;stroke-opacity:1"
         id="path2-3-2-1-9-3-3"
         cx="276.48837"
         cy="225.93947"
         r="2.0285513" />
      <circle
         style="fill:#000000;fill-opacity:1;stroke:none;stroke-width:0.75;stroke-opacity:1"
         id="path2-36-9-5-7-3-8"
         cx="282.18115"
         cy="220.24669"
         r="2.0285513" />
    </g>
    <g
       id="g131-7-75-8-2"
       transform="matrix(0.35277801,0,0,0.35277801,-59.895489,-34.126633)">
      <circle
         style="fill:#b2b2b2;fill-opacity:1;stroke:none;stroke-width:0.75;stroke-opacity:1"
         id="path1-3-962-8-8"
         cx="276.48837"
         cy="220.24669"
         r="5.3177843" />
      <circle
         style="fill:#000000;fill-opacity:1;stroke:none;stroke-width:0.75;stroke-opacity:1"
         id="path2-6-1-92-8"
         cx="276.48837"
         cy="214.55391"
         r="2.0285513" />
      <circle
         style="fill:#000000;fill-opacity:1;stroke:none;stroke-width:0.75;stroke-opacity:1"
         id="path2-1-1-7-8-9"
         cx="270.79559"
         cy="220.24669"
         r="2.0285513" />
      <circle
         style="fill:#000000;fill-opacity:1;stroke:none;stroke-width:0.75;stroke-opacity:1"
         id="path2-3-2-8-8-2"
         cx="276.48837"
         cy="225.93947"
         r="2.0285513" />
      <circle
         style="fill:#000000;fill-opacity:1;stroke:none;stroke-width:0.75;stroke-opacity:1"
         id="path2-36-9-57-8-8"
         cx="282.18115"
         cy="220.24669"
         r="2.0285513" />
    </g>
    <g
       transform="matrix(0.4255553,0,0,0.4255553,36.765533,47.294308)"
       ns19:version="1.11.1"
       ns19:texconverter="pdflatex"
       ns19:pdfconverter="inkscape"
       ns19:text="$\\nu$"
       ns19:preamble="/home/jewett/.config/inkscape/extensions/textext/default_packages.tex"
       ns19:scale="1.0"
       ns19:alignment="middle center"
       ns19:inkscapeversion="1.4.1"
       ns19:jacobian_sqrt="0.352778"
       id="g2">
      <defs
         id="id-fc132712-8eb5-47f4-8fab-866acdf4d2a6">
        <g
           id="id-53f16c0e-9add-4a5b-89b4-8ff9f09a17b2">
          <symbol
             overflow="visible"
             id="id-3b57ac7c-baa5-4a83-a5e4-e8579db843ee">
            <path
               style="stroke:none;stroke-width:0"
               d=""
               id="id-ea746755-6ee1-40db-baf8-ade88e33d6d6" />
          </symbol>
          <symbol
             overflow="visible"
             id="id-a691896b-6606-4d23-a4ef-682468f974e3">
            <path
               style="stroke:none;stroke-width:0"
               d="m 2.234375,-4.296875 c 0,-0.015625 0,-0.109375 -0.125,-0.109375 -0.234375,0 -0.96875,0.078125 -1.21875,0.09375 -0.078125,0.015625 -0.1875,0.03125 -0.1875,0.203125 0,0.125 0.078125,0.125 0.234375,0.125 0.484375,0 0.5,0.0625 0.5,0.171875 0,0.0625 -0.125,0.53125 -0.1875,0.796875 L 0.640625,-0.5625 C 0.59375,-0.421875 0.53125,-0.140625 0.53125,-0.125 0.53125,-0.015625 0.625,0 0.6875,0 h 0.140625 c 0.703125,-0.125 1.78125,-0.515625 2.8125,-1.46875 1.3125,-1.21875 1.578125,-2.578125 1.578125,-2.671875 0,-0.171875 -0.109375,-0.265625 -0.28125,-0.265625 -0.078125,0 -0.3125,0.046875 -0.390625,0.328125 -0.640625,2.265625 -2.15625,3.375 -3.296875,3.75 z m 0,0"
               id="id-eca4cf2d-f037-4446-88b5-a706c800ce33" />
          </symbol>
        </g>
      </defs>
      <g
         id="id-3c0b5bba-d518-42fb-a3ab-0266bac054d3"
         transform="translate(-149.243,-130.359)">
        <g
           style="fill:#000000;fill-opacity:1"
           id="id-ad4210ca-5a32-47a5-8747-3f3da27c1788">
          <g
             transform="translate(148.712,134.765)"
             id="g1">
            <path
               style="stroke:none;stroke-width:0"
               d="m 2.234375,-4.296875 c 0,-0.015625 0,-0.109375 -0.125,-0.109375 -0.234375,0 -0.96875,0.078125 -1.21875,0.09375 -0.078125,0.015625 -0.1875,0.03125 -0.1875,0.203125 0,0.125 0.078125,0.125 0.234375,0.125 0.484375,0 0.5,0.0625 0.5,0.171875 0,0.0625 -0.125,0.53125 -0.1875,0.796875 L 0.640625,-0.5625 C 0.59375,-0.421875 0.53125,-0.140625 0.53125,-0.125 0.53125,-0.015625 0.625,0 0.6875,0 h 0.140625 c 0.703125,-0.125 1.78125,-0.515625 2.8125,-1.46875 1.3125,-1.21875 1.578125,-2.578125 1.578125,-2.671875 0,-0.171875 -0.109375,-0.265625 -0.28125,-0.265625 -0.078125,0 -0.3125,0.046875 -0.390625,0.328125 -0.640625,2.265625 -2.15625,3.375 -3.296875,3.75 z m 0,0"
               id="id-5f0ab920-5e65-49a2-b7c4-b6fdb3971f59" />
          </g>
        </g>
      </g>
    </g>
    <g
       transform="matrix(0.4255553,0,0,0.4255553,21.135105,42.730235)"
       ns19:version="1.11.1"
       ns19:texconverter="pdflatex"
       ns19:pdfconverter="inkscape"
       ns19:text="$\\mu$"
       ns19:preamble="/home/jewett/.config/inkscape/extensions/textext/default_packages.tex"
       ns19:scale="1.0"
       ns19:alignment="middle center"
       ns19:inkscapeversion="1.4.1"
       ns19:jacobian_sqrt="0.352778"
       id="g4">
      <defs
         id="id-110cd3b4-60fb-41ee-b876-17051324f76d">
        <g
           id="id-85a1e8dc-0716-4026-a2e1-09f9e04f2dbf">
          <symbol
             overflow="visible"
             id="id-b9744db6-9318-457b-b0ef-5f01e9916704">
            <path
               style="stroke:none;stroke-width:0"
               d=""
               id="id-42c9e388-e0f7-44fb-9549-f01026ee597e" />
          </symbol>
          <symbol
             overflow="visible"
             id="id-b33fd551-6bb5-47f1-96e5-c7fe93e11cbb">
            <path
               style="stroke:none;stroke-width:0"
               d="m 2.296875,-3.5 c 0.0625,-0.203125 0.15625,-0.59375 0.15625,-0.640625 0,-0.171875 -0.125,-0.265625 -0.296875,-0.265625 -0.015625,0 -0.296875,0.015625 -0.390625,0.359375 l -1.4375,5.765625 c -0.03125,0.125 -0.03125,0.140625 -0.03125,0.171875 0,0.140625 0.109375,0.265625 0.28125,0.265625 0.203125,0 0.328125,-0.1875 0.34375,-0.21875 C 0.96875,1.859375 1.09375,1.328125 1.46875,-0.203125 1.796875,0.0625 2.25,0.109375 2.4375,0.109375 c 0.703125,0 1.09375,-0.453125 1.328125,-0.734375 0.09375,0.453125 0.46875,0.734375 0.90625,0.734375 0.34375,0 0.578125,-0.234375 0.734375,-0.546875 0.171875,-0.359375 0.296875,-0.96875 0.296875,-0.984375 0,-0.109375 -0.09375,-0.109375 -0.125,-0.109375 -0.09375,0 -0.109375,0.046875 -0.140625,0.1875 -0.15625,0.640625 -0.34375,1.234375 -0.75,1.234375 -0.265625,0 -0.296875,-0.265625 -0.296875,-0.453125 0,-0.21875 0.109375,-0.6875 0.1875,-1.046875 L 4.859375,-2.6875 C 4.890625,-2.828125 5,-3.203125 5.03125,-3.359375 5.078125,-3.59375 5.1875,-3.96875 5.1875,-4.03125 c 0,-0.171875 -0.140625,-0.265625 -0.296875,-0.265625 -0.046875,0 -0.3125,0.015625 -0.390625,0.34375 l -0.46875,1.875 c -0.109375,0.5 -0.21875,0.90625 -0.25,1.015625 -0.015625,0.046875 -0.484375,0.953125 -1.296875,0.953125 -0.5,0 -0.734375,-0.328125 -0.734375,-0.875 0,-0.28125 0.0625,-0.5625 0.140625,-0.84375 z m 0,0"
               id="id-b37565c1-6889-4e92-8154-beeea0097249" />
          </symbol>
        </g>
      </defs>
      <g
         id="id-18c0203f-881c-44cf-9f19-89e6cba248dd"
         transform="translate(-149.009,-130.359)">
        <g
           style="fill:#000000;fill-opacity:1"
           id="id-ee83f42c-ead6-4a25-b4bd-c171b605577d">
          <g
             transform="translate(148.712,134.765)"
             id="g3">
            <path
               style="stroke:none;stroke-width:0"
               d="m 2.296875,-3.5 c 0.0625,-0.203125 0.15625,-0.59375 0.15625,-0.640625 0,-0.171875 -0.125,-0.265625 -0.296875,-0.265625 -0.015625,0 -0.296875,0.015625 -0.390625,0.359375 l -1.4375,5.765625 c -0.03125,0.125 -0.03125,0.140625 -0.03125,0.171875 0,0.140625 0.109375,0.265625 0.28125,0.265625 0.203125,0 0.328125,-0.1875 0.34375,-0.21875 C 0.96875,1.859375 1.09375,1.328125 1.46875,-0.203125 1.796875,0.0625 2.25,0.109375 2.4375,0.109375 c 0.703125,0 1.09375,-0.453125 1.328125,-0.734375 0.09375,0.453125 0.46875,0.734375 0.90625,0.734375 0.34375,0 0.578125,-0.234375 0.734375,-0.546875 0.171875,-0.359375 0.296875,-0.96875 0.296875,-0.984375 0,-0.109375 -0.09375,-0.109375 -0.125,-0.109375 -0.09375,0 -0.109375,0.046875 -0.140625,0.1875 -0.15625,0.640625 -0.34375,1.234375 -0.75,1.234375 -0.265625,0 -0.296875,-0.265625 -0.296875,-0.453125 0,-0.21875 0.109375,-0.6875 0.1875,-1.046875 L 4.859375,-2.6875 C 4.890625,-2.828125 5,-3.203125 5.03125,-3.359375 5.078125,-3.59375 5.1875,-3.96875 5.1875,-4.03125 c 0,-0.171875 -0.140625,-0.265625 -0.296875,-0.265625 -0.046875,0 -0.3125,0.015625 -0.390625,0.34375 l -0.46875,1.875 c -0.109375,0.5 -0.21875,0.90625 -0.25,1.015625 -0.015625,0.046875 -0.484375,0.953125 -1.296875,0.953125 -0.5,0 -0.734375,-0.328125 -0.734375,-0.875 0,-0.28125 0.0625,-0.5625 0.140625,-0.84375 z m 0,0"
               id="id-1b391db4-9f15-409e-8b24-1bf9db4bce7f" />
          </g>
        </g>
      </g>
    </g>
  </g>
</svg>
